<?xml version="1.0" standalone="no"?>
<svg xmlns:xlink="http://www.w3.org/1999/xlink" id="wave" style="transform:rotate(180deg); transition: 0.3s" viewBox="0 0 1440 100" version="1.1" xmlns="http://www.w3.org/2000/svg"><defs><linearGradient id="sw-gradient-0" x1="0" x2="0" y1="1" y2="0"><stop stop-color="rgba(225.722, 200.03, 135.8, 1)" offset="0%"/><stop stop-color="rgba(6.289, 71.382, 130.097, 1)" offset="100%"/></linearGradient></defs><path style="transform:translate(0, 0px); opacity:1" fill="url(#sw-gradient-0)" d="M0,50L360,70L720,10L1080,0L1440,20L1800,50L2160,40L2520,60L2880,60L3240,10L3600,90L3960,90L4320,50L4680,20L5040,90L5400,60L5760,0L6120,10L6480,50L6840,30L7200,70L7560,10L7920,50L8280,40L8640,70L8640,100L8280,100L7920,100L7560,100L7200,100L6840,100L6480,100L6120,100L5760,100L5400,100L5040,100L4680,100L4320,100L3960,100L3600,100L3240,100L2880,100L2520,100L2160,100L1800,100L1440,100L1080,100L720,100L360,100L0,100Z"/></svg>